<svg width="124" height="24" viewBox="0 0 124 24" fill="none" xmlns="http://www.w3.org/2000/svg">
<path fill-rule="evenodd" clip-rule="evenodd" d="M62.675 19.3393L59.675 17.1965C58.8539 16.6099 58.4433 16.3167 58.2217 15.8859C58 15.4552 58 14.9506 58 13.9415V10.0585C58 9.73712 58 9.46694 58.0072 9.23402L64 13.5146V20.2313C63.6433 20.0309 63.227 19.7336 62.675 19.3393ZM66 20.2313C66.3567 20.0309 66.773 19.7336 67.325 19.3393L70.325 17.1965C71.1461 16.6099 71.5567 16.3167 71.7783 15.8859C72 15.4552 72 14.9506 72 13.9415V10.0585C72 9.73712 72 9.46694 71.9928 9.23402L66 13.5146V20.2313ZM71.1276 7.39427L65 11.7711L58.8724 7.39427C59.0837 7.22591 59.3465 7.03819 59.675 6.80354L62.675 4.66068C63.7977 3.85877 64.3591 3.45781 65 3.45781C65.6409 3.45781 66.2023 3.85877 67.325 4.66068L70.325 6.80354C70.6535 7.03819 70.9163 7.22591 71.1276 7.39427Z" fill="#00C3FF"/>
<path d="M78.2642 19V4.45455H87.8949V6.99006H81.3395V10.456H87.2557V12.9915H81.3395V19H78.2642ZM94.0774 19.2131C92.9553 19.2131 91.9893 18.9858 91.1797 18.5312C90.3748 18.072 89.7545 17.4233 89.3189 16.5852C88.8833 15.7424 88.6655 14.7457 88.6655 13.5952C88.6655 12.473 88.8833 11.4882 89.3189 10.6406C89.7545 9.79309 90.3677 9.13258 91.1584 8.65909C91.9538 8.18561 92.8866 7.94886 93.9567 7.94886C94.6764 7.94886 95.3464 8.06487 95.9666 8.29688C96.5916 8.52415 97.1361 8.86742 97.6001 9.3267C98.0689 9.78598 98.4335 10.3636 98.6939 11.0597C98.9543 11.7509 99.0845 12.5606 99.0845 13.4886V14.3196H89.8729V12.4446H96.2365C96.2365 12.009 96.1418 11.6231 95.9524 11.2869C95.763 10.9508 95.5002 10.688 95.1641 10.4986C94.8326 10.3045 94.4467 10.2074 94.0064 10.2074C93.5471 10.2074 93.1399 10.3139 92.7848 10.527C92.4344 10.7353 92.1598 11.017 91.9609 11.3722C91.7621 11.7225 91.6603 12.1132 91.6555 12.544V14.3267C91.6555 14.8665 91.755 15.3329 91.9538 15.7259C92.1574 16.1188 92.4439 16.4219 92.8132 16.6349C93.1825 16.848 93.6205 16.9545 94.1271 16.9545C94.4633 16.9545 94.7711 16.9072 95.0504 16.8125C95.3298 16.7178 95.5689 16.5758 95.7678 16.3864C95.9666 16.197 96.1181 15.965 96.2223 15.6903L99.0206 15.875C98.8786 16.5473 98.5874 17.1345 98.147 17.6364C97.7114 18.1335 97.148 18.5218 96.4567 18.8011C95.7701 19.0758 94.977 19.2131 94.0774 19.2131ZM106.031 19.2131C104.908 19.2131 103.942 18.9858 103.133 18.5312C102.328 18.072 101.708 17.4233 101.272 16.5852C100.836 15.7424 100.619 14.7457 100.619 13.5952C100.619 12.473 100.836 11.4882 101.272 10.6406C101.708 9.79309 102.321 9.13258 103.112 8.65909C103.907 8.18561 104.84 7.94886 105.91 7.94886C106.629 7.94886 107.299 8.06487 107.92 8.29688C108.545 8.52415 109.089 8.86742 109.553 9.3267C110.022 9.78598 110.387 10.3636 110.647 11.0597C110.907 11.7509 111.038 12.5606 111.038 13.4886V14.3196H101.826V12.4446H108.19C108.19 12.009 108.095 11.6231 107.906 11.2869C107.716 10.9508 107.453 10.688 107.117 10.4986C106.786 10.3045 106.4 10.2074 105.96 10.2074C105.5 10.2074 105.093 10.3139 104.738 10.527C104.388 10.7353 104.113 11.017 103.914 11.3722C103.715 11.7225 103.613 12.1132 103.609 12.544V14.3267C103.609 14.8665 103.708 15.3329 103.907 15.7259C104.111 16.1188 104.397 16.4219 104.766 16.6349C105.136 16.848 105.574 16.9545 106.08 16.9545C106.416 16.9545 106.724 16.9072 107.004 16.8125C107.283 16.7178 107.522 16.5758 107.721 16.3864C107.92 16.197 108.071 15.965 108.175 15.6903L110.974 15.875C110.832 16.5473 110.54 17.1345 110.1 17.6364C109.665 18.1335 109.101 18.5218 108.41 18.8011C107.723 19.0758 106.93 19.2131 106.031 19.2131ZM117.032 19.1776C116.203 19.1776 115.453 18.9645 114.781 18.5384C114.113 18.1075 113.583 17.4754 113.19 16.642C112.801 15.804 112.607 14.7765 112.607 13.5597C112.607 12.3097 112.808 11.2704 113.211 10.4418C113.613 9.60843 114.148 8.9858 114.816 8.57386C115.488 8.1572 116.225 7.94886 117.025 7.94886C117.636 7.94886 118.145 8.05303 118.552 8.26136C118.964 8.46496 119.295 8.72064 119.546 9.02841C119.802 9.33144 119.996 9.62973 120.129 9.9233H120.221V4.45455H123.239V19H120.256V17.2528H120.129C119.987 17.5559 119.785 17.8565 119.525 18.1548C119.269 18.4484 118.935 18.6922 118.523 18.8864C118.116 19.0805 117.619 19.1776 117.032 19.1776ZM117.991 16.7699C118.478 16.7699 118.89 16.6373 119.227 16.3722C119.567 16.1023 119.828 15.7259 120.008 15.2429C120.192 14.7599 120.285 14.1941 120.285 13.5455C120.285 12.8968 120.195 12.3333 120.015 11.8551C119.835 11.3769 119.575 11.0076 119.234 10.7472C118.893 10.4867 118.478 10.3565 117.991 10.3565C117.494 10.3565 117.075 10.4915 116.734 10.7614C116.393 11.0312 116.135 11.4053 115.96 11.8835C115.784 12.3617 115.697 12.9157 115.697 13.5455C115.697 14.1799 115.784 14.741 115.96 15.2287C116.139 15.7116 116.397 16.0904 116.734 16.3651C117.075 16.6349 117.494 16.7699 117.991 16.7699Z" fill="white"/>
<path d="M0.264205 19V4.45455H6.08807C7.15814 4.45455 8.05066 4.61316 8.76562 4.9304C9.48059 5.24763 10.018 5.68797 10.3778 6.25142C10.7377 6.81013 10.9176 7.45407 10.9176 8.18324C10.9176 8.75142 10.804 9.25095 10.5767 9.68182C10.3494 10.108 10.0369 10.4583 9.6392 10.733C9.24621 11.0028 8.7964 11.1946 8.28977 11.3082V11.4503C8.84375 11.474 9.36222 11.6302 9.84517 11.919C10.3329 12.2079 10.7282 12.6127 11.0312 13.1335C11.3343 13.6496 11.4858 14.2652 11.4858 14.9801C11.4858 15.7519 11.294 16.4408 10.9105 17.0469C10.5317 17.6482 9.97064 18.1241 9.22727 18.4744C8.4839 18.8248 7.56771 19 6.47869 19H0.264205ZM3.33949 16.4858H5.84659C6.7036 16.4858 7.3286 16.3224 7.72159 15.9957C8.11458 15.6643 8.31108 15.224 8.31108 14.6747C8.31108 14.2723 8.21402 13.9171 8.01989 13.6094C7.82576 13.3016 7.54877 13.0601 7.18892 12.8849C6.83381 12.7098 6.41004 12.6222 5.91761 12.6222H3.33949V16.4858ZM3.33949 10.5412H5.61932C6.04072 10.5412 6.41477 10.4678 6.74148 10.321C7.07292 10.1695 7.33333 9.95644 7.52273 9.68182C7.71686 9.4072 7.81392 9.07812 7.81392 8.6946C7.81392 8.16903 7.62689 7.74527 7.25284 7.4233C6.88352 7.10133 6.35795 6.94034 5.67614 6.94034H3.33949V10.5412ZM16.4556 4.45455V19H13.43V4.45455H16.4556ZM23.8082 19.2131C22.705 19.2131 21.7509 18.9787 20.946 18.5099C20.1458 18.0365 19.5279 17.3783 19.0923 16.5355C18.6567 15.688 18.4389 14.7055 18.4389 13.5881C18.4389 12.4612 18.6567 11.4763 19.0923 10.6335C19.5279 9.78598 20.1458 9.12784 20.946 8.65909C21.7509 8.18561 22.705 7.94886 23.8082 7.94886C24.9115 7.94886 25.8632 8.18561 26.6634 8.65909C27.4683 9.12784 28.0885 9.78598 28.5241 10.6335C28.9598 11.4763 29.1776 12.4612 29.1776 13.5881C29.1776 14.7055 28.9598 15.688 28.5241 16.5355C28.0885 17.3783 27.4683 18.0365 26.6634 18.5099C25.8632 18.9787 24.9115 19.2131 23.8082 19.2131ZM23.8224 16.8693C24.3243 16.8693 24.7434 16.7273 25.0795 16.4432C25.4157 16.1544 25.669 15.7614 25.8395 15.2642C26.0147 14.767 26.1023 14.2012 26.1023 13.5668C26.1023 12.9323 26.0147 12.3665 25.8395 11.8693C25.669 11.3722 25.4157 10.9792 25.0795 10.6903C24.7434 10.4015 24.3243 10.2571 23.8224 10.2571C23.3158 10.2571 22.8897 10.4015 22.544 10.6903C22.2031 10.9792 21.9451 11.3722 21.7699 11.8693C21.5994 12.3665 21.5142 12.9323 21.5142 13.5668C21.5142 14.2012 21.5994 14.767 21.7699 15.2642C21.9451 15.7614 22.2031 16.1544 22.544 16.4432C22.8897 16.7273 23.3158 16.8693 23.8224 16.8693ZM36.0739 19.2131C34.9564 19.2131 33.9953 18.9763 33.1903 18.5028C32.3902 18.0246 31.7746 17.3617 31.3438 16.5142C30.9176 15.6667 30.7045 14.6913 30.7045 13.5881C30.7045 12.4706 30.92 11.4905 31.3509 10.6477C31.7865 9.80019 32.4044 9.13968 33.2045 8.66619C34.0047 8.18797 34.9564 7.94886 36.0597 7.94886C37.0114 7.94886 37.8447 8.12169 38.5597 8.46733C39.2746 8.81297 39.8404 9.2983 40.2571 9.9233C40.6738 10.5483 40.9034 11.2822 40.946 12.125H38.0909C38.0104 11.5805 37.7973 11.1425 37.4517 10.8111C37.1108 10.4749 36.6634 10.3068 36.1094 10.3068C35.6406 10.3068 35.2311 10.4347 34.8807 10.6903C34.535 10.9413 34.2652 11.3082 34.071 11.7912C33.8769 12.2741 33.7798 12.8589 33.7798 13.5455C33.7798 14.2415 33.8745 14.8333 34.0639 15.321C34.258 15.8087 34.5303 16.1804 34.8807 16.4361C35.2311 16.6918 35.6406 16.8196 36.1094 16.8196C36.455 16.8196 36.7652 16.7486 37.0398 16.6065C37.3191 16.4645 37.5488 16.2585 37.7287 15.9886C37.9134 15.714 38.0341 15.3849 38.0909 15.0014H40.946C40.8987 15.8348 40.6714 16.5687 40.2642 17.2031C39.8617 17.8329 39.3054 18.3253 38.5952 18.6804C37.8849 19.0355 37.0445 19.2131 36.0739 19.2131ZM45.6246 15.8608L45.6317 12.2315H46.0721L49.5664 8.09091H53.0394L48.3448 13.5739H47.6275L45.6246 15.8608ZM42.8832 19V4.45455H45.9087V19H42.8832ZM49.7013 19L46.4911 14.2486L48.5082 12.1108L53.2454 19H49.7013Z" fill="white"/>
</svg>
