<svg width="130" height="24" viewBox="0 0 130 24" fill="none" xmlns="http://www.w3.org/2000/svg">
<path fill-rule="evenodd" clip-rule="evenodd" d="M9.67505 19.3393L6.67505 17.1965C5.8539 16.6099 5.44333 16.3167 5.22166 15.8859C5 15.4552 5 14.9506 5 13.9415V10.0585C5 9.73713 5 9.46694 5.00716 9.23402L11 13.5146V20.2313C10.6433 20.0309 10.227 19.7336 9.67505 19.3393ZM13 20.2313C13.3567 20.0309 13.773 19.7336 14.325 19.3393L17.325 17.1965C18.1461 16.6099 18.5567 16.3167 18.7783 15.8859C19 15.4552 19 14.9506 19 13.9415V10.0585C19 9.73713 19 9.46694 18.9928 9.23402L13 13.5146V20.2313ZM18.1276 7.39427L12 11.7711L5.87244 7.39427C6.08372 7.22591 6.34653 7.0382 6.67505 6.80354L9.67505 4.66068C10.7977 3.85877 11.3591 3.45781 12 3.45781C12.6409 3.45781 13.2023 3.85877 14.325 4.66068L17.325 6.80354C17.6535 7.0382 17.9163 7.22591 18.1276 7.39427Z" fill="#00C3FF"/>
<path d="M25.2642 19V4.45455H31.0881C32.1581 4.45455 33.0507 4.61316 33.7656 4.9304C34.4806 5.24763 35.018 5.68797 35.3778 6.25142C35.7377 6.81013 35.9176 7.45407 35.9176 8.18324C35.9176 8.75142 35.804 9.25095 35.5767 9.68182C35.3494 10.108 35.0369 10.4583 34.6392 10.733C34.2462 11.0028 33.7964 11.1946 33.2898 11.3082V11.4503C33.8438 11.474 34.3622 11.6302 34.8452 11.919C35.3329 12.2079 35.7282 12.6127 36.0312 13.1335C36.3343 13.6496 36.4858 14.2652 36.4858 14.9801C36.4858 15.7519 36.294 16.4408 35.9105 17.0469C35.5317 17.6482 34.9706 18.1241 34.2273 18.4744C33.4839 18.8248 32.5677 19 31.4787 19H25.2642ZM28.3395 16.4858H30.8466C31.7036 16.4858 32.3286 16.3224 32.7216 15.9957C33.1146 15.6643 33.3111 15.224 33.3111 14.6747C33.3111 14.2723 33.214 13.9171 33.0199 13.6094C32.8258 13.3016 32.5488 13.0601 32.1889 12.8849C31.8338 12.7098 31.41 12.6222 30.9176 12.6222H28.3395V16.4858ZM28.3395 10.5412H30.6193C31.0407 10.5412 31.4148 10.4678 31.7415 10.321C32.0729 10.1695 32.3333 9.95644 32.5227 9.68182C32.7169 9.4072 32.8139 9.07812 32.8139 8.6946C32.8139 8.16903 32.6269 7.74527 32.2528 7.4233C31.8835 7.10133 31.358 6.94034 30.6761 6.94034H28.3395V10.5412ZM41.4556 4.45455V19H38.43V4.45455H41.4556ZM48.8082 19.2131C47.705 19.2131 46.7509 18.9787 45.946 18.5099C45.1458 18.0365 44.5279 17.3783 44.0923 16.5355C43.6567 15.688 43.4389 14.7055 43.4389 13.5881C43.4389 12.4612 43.6567 11.4763 44.0923 10.6335C44.5279 9.78598 45.1458 9.12784 45.946 8.65909C46.7509 8.18561 47.705 7.94886 48.8082 7.94886C49.9115 7.94886 50.8632 8.18561 51.6634 8.65909C52.4683 9.12784 53.0885 9.78598 53.5241 10.6335C53.9598 11.4763 54.1776 12.4612 54.1776 13.5881C54.1776 14.7055 53.9598 15.688 53.5241 16.5355C53.0885 17.3783 52.4683 18.0365 51.6634 18.5099C50.8632 18.9787 49.9115 19.2131 48.8082 19.2131ZM48.8224 16.8693C49.3243 16.8693 49.7434 16.7273 50.0795 16.4432C50.4157 16.1544 50.669 15.7614 50.8395 15.2642C51.0147 14.767 51.1023 14.2012 51.1023 13.5668C51.1023 12.9323 51.0147 12.3665 50.8395 11.8693C50.669 11.3722 50.4157 10.9792 50.0795 10.6903C49.7434 10.4015 49.3243 10.2571 48.8224 10.2571C48.3158 10.2571 47.8897 10.4015 47.544 10.6903C47.2031 10.9792 46.9451 11.3722 46.7699 11.8693C46.5994 12.3665 46.5142 12.9323 46.5142 13.5668C46.5142 14.2012 46.5994 14.767 46.7699 15.2642C46.9451 15.7614 47.2031 16.1544 47.544 16.4432C47.8897 16.7273 48.3158 16.8693 48.8224 16.8693ZM61.0739 19.2131C59.9564 19.2131 58.9953 18.9763 58.1903 18.5028C57.3902 18.0246 56.7746 17.3617 56.3438 16.5142C55.9176 15.6667 55.7045 14.6913 55.7045 13.5881C55.7045 12.4706 55.92 11.4905 56.3509 10.6477C56.7865 9.80019 57.4044 9.13968 58.2045 8.66619C59.0047 8.18797 59.9564 7.94886 61.0597 7.94886C62.0114 7.94886 62.8447 8.12169 63.5597 8.46733C64.2746 8.81297 64.8404 9.2983 65.2571 9.9233C65.6738 10.5483 65.9034 11.2822 65.946 12.125H63.0909C63.0104 11.5805 62.7973 11.1425 62.4517 10.8111C62.1108 10.4749 61.6634 10.3068 61.1094 10.3068C60.6406 10.3068 60.2311 10.4347 59.8807 10.6903C59.535 10.9413 59.2652 11.3082 59.071 11.7912C58.8769 12.2741 58.7798 12.8589 58.7798 13.5455C58.7798 14.2415 58.8745 14.8333 59.0639 15.321C59.258 15.8087 59.5303 16.1804 59.8807 16.4361C60.2311 16.6918 60.6406 16.8196 61.1094 16.8196C61.455 16.8196 61.7652 16.7486 62.0398 16.6065C62.3191 16.4645 62.5488 16.2585 62.7287 15.9886C62.9134 15.714 63.0341 15.3849 63.0909 15.0014H65.946C65.8987 15.8348 65.6714 16.5687 65.2642 17.2031C64.8617 17.8329 64.3054 18.3253 63.5952 18.6804C62.8849 19.0355 62.0445 19.2131 61.0739 19.2131ZM70.6246 15.8608L70.6317 12.2315H71.0721L74.5664 8.09091H78.0394L73.3448 13.5739H72.6275L70.6246 15.8608ZM67.8832 19V4.45455H70.9087V19H67.8832ZM74.7013 19L71.4911 14.2486L73.5082 12.1108L78.2454 19H74.7013ZM84.2095 19V4.45455H93.8402V6.99006H87.2848V10.456H93.201V12.9915H87.2848V19H84.2095ZM100.023 19.2131C98.9006 19.2131 97.9347 18.9858 97.125 18.5312C96.3201 18.072 95.6998 17.4233 95.2642 16.5852C94.8286 15.7424 94.6108 14.7457 94.6108 13.5952C94.6108 12.473 94.8286 11.4882 95.2642 10.6406C95.6998 9.79309 96.313 9.13258 97.1037 8.65909C97.8991 8.18561 98.8319 7.94886 99.902 7.94886C100.622 7.94886 101.292 8.06487 101.912 8.29688C102.537 8.52415 103.081 8.86742 103.545 9.3267C104.014 9.78598 104.379 10.3636 104.639 11.0597C104.9 11.7509 105.03 12.5606 105.03 13.4886V14.3196H95.8182V12.4446H102.182C102.182 12.009 102.087 11.6231 101.898 11.2869C101.708 10.9508 101.446 10.688 101.109 10.4986C100.778 10.3045 100.392 10.2074 99.9517 10.2074C99.4924 10.2074 99.0852 10.3139 98.7301 10.527C98.3797 10.7353 98.1051 11.017 97.9062 11.3722C97.7074 11.7225 97.6056 12.1132 97.6009 12.544V14.3267C97.6009 14.8665 97.7003 15.3329 97.8991 15.7259C98.1027 16.1188 98.3892 16.4219 98.7585 16.6349C99.1278 16.848 99.5658 16.9545 100.072 16.9545C100.409 16.9545 100.716 16.9072 100.996 16.8125C101.275 16.7178 101.514 16.5758 101.713 16.3864C101.912 16.197 102.063 15.965 102.168 15.6903L104.966 15.875C104.824 16.5473 104.533 17.1345 104.092 17.6364C103.657 18.1335 103.093 18.5218 102.402 18.8011C101.715 19.0758 100.922 19.2131 100.023 19.2131ZM111.976 19.2131C110.854 19.2131 109.888 18.9858 109.078 18.5312C108.273 18.072 107.653 17.4233 107.217 16.5852C106.782 15.7424 106.564 14.7457 106.564 13.5952C106.564 12.473 106.782 11.4882 107.217 10.6406C107.653 9.79309 108.266 9.13258 109.057 8.65909C109.852 8.18561 110.785 7.94886 111.855 7.94886C112.575 7.94886 113.245 8.06487 113.865 8.29688C114.49 8.52415 115.035 8.86742 115.499 9.3267C115.967 9.78598 116.332 10.3636 116.592 11.0597C116.853 11.7509 116.983 12.5606 116.983 13.4886V14.3196H107.771V12.4446H114.135C114.135 12.009 114.04 11.6231 113.851 11.2869C113.661 10.9508 113.399 10.688 113.062 10.4986C112.731 10.3045 112.345 10.2074 111.905 10.2074C111.446 10.2074 111.038 10.3139 110.683 10.527C110.333 10.7353 110.058 11.017 109.859 11.3722C109.661 11.7225 109.559 12.1132 109.554 12.544V14.3267C109.554 14.8665 109.653 15.3329 109.852 15.7259C110.056 16.1188 110.342 16.4219 110.712 16.6349C111.081 16.848 111.519 16.9545 112.026 16.9545C112.362 16.9545 112.67 16.9072 112.949 16.8125C113.228 16.7178 113.467 16.5758 113.666 16.3864C113.865 16.197 114.017 15.965 114.121 15.6903L116.919 15.875C116.777 16.5473 116.486 17.1345 116.045 17.6364C115.61 18.1335 115.046 18.5218 114.355 18.8011C113.669 19.0758 112.875 19.2131 111.976 19.2131ZM122.977 19.1776C122.149 19.1776 121.398 18.9645 120.726 18.5384C120.058 18.1075 119.528 17.4754 119.135 16.642C118.747 15.804 118.553 14.7765 118.553 13.5597C118.553 12.3097 118.754 11.2704 119.156 10.4418C119.559 9.60843 120.094 8.9858 120.761 8.57386C121.434 8.1572 122.17 7.94886 122.97 7.94886C123.581 7.94886 124.09 8.05303 124.497 8.26136C124.909 8.46496 125.241 8.72064 125.491 9.02841C125.747 9.33144 125.941 9.62973 126.074 9.9233H126.166V4.45455H129.185V19H126.202V17.2528H126.074C125.932 17.5559 125.731 17.8565 125.47 18.1548C125.214 18.4484 124.881 18.6922 124.469 18.8864C124.062 19.0805 123.564 19.1776 122.977 19.1776ZM123.936 16.7699C124.424 16.7699 124.836 16.6373 125.172 16.3722C125.513 16.1023 125.773 15.7259 125.953 15.2429C126.138 14.7599 126.23 14.1941 126.23 13.5455C126.23 12.8968 126.14 12.3333 125.96 11.8551C125.78 11.3769 125.52 11.0076 125.179 10.7472C124.838 10.4867 124.424 10.3565 123.936 10.3565C123.439 10.3565 123.02 10.4915 122.679 10.7614C122.338 11.0312 122.08 11.4053 121.905 11.8835C121.73 12.3617 121.642 12.9157 121.642 13.5455C121.642 14.1799 121.73 14.741 121.905 15.2287C122.085 15.7116 122.343 16.0904 122.679 16.3651C123.02 16.6349 123.439 16.7699 123.936 16.7699Z" fill="white"/>
</svg>
